<mxfile host="app.diagrams.net" agent="Mozilla/5.0 (Macintosh; Intel Mac OS X 10_15_7) AppleWebKit/537.36 (KHTML, like Gecko) Chrome/138.0.0.0 Safari/537.36" version="28.0.6">
  <diagram name="Page-1" id="1cJhkdwH2HKEm1wBTZuL">
    <mxGraphModel dx="2194" dy="1400" grid="1" gridSize="10" guides="1" tooltips="1" connect="1" arrows="1" fold="1" page="1" pageScale="1" pageWidth="850" pageHeight="1100" math="0" shadow="0">
      <root>
        <mxCell id="0" />
        <mxCell id="1" parent="0" />
        <mxCell id="0LG_3GaAj0TR1XZ5y8be-1" style="edgeStyle=orthogonalEdgeStyle;rounded=0;orthogonalLoop=1;jettySize=auto;html=1;exitX=1;exitY=0.5;exitDx=0;exitDy=0;entryX=0;entryY=0.5;entryDx=0;entryDy=0;" edge="1" parent="1" source="0LG_3GaAj0TR1XZ5y8be-2" target="0LG_3GaAj0TR1XZ5y8be-8">
          <mxGeometry relative="1" as="geometry" />
        </mxCell>
        <mxCell id="0LG_3GaAj0TR1XZ5y8be-2" value="Degraded Image" style="whiteSpace=wrap;html=1;aspect=fixed;" vertex="1" parent="1">
          <mxGeometry x="310" y="509.5" width="95" height="95" as="geometry" />
        </mxCell>
        <mxCell id="0LG_3GaAj0TR1XZ5y8be-3" value="" style="shape=table;startSize=0;container=1;collapsible=0;childLayout=tableLayout;fontSize=16;" vertex="1" parent="1">
          <mxGeometry x="449" y="509.5" width="94" height="95" as="geometry" />
        </mxCell>
        <mxCell id="0LG_3GaAj0TR1XZ5y8be-4" value="" style="shape=tableRow;horizontal=0;startSize=0;swimlaneHead=0;swimlaneBody=0;strokeColor=inherit;top=0;left=0;bottom=0;right=0;collapsible=0;dropTarget=0;fillColor=none;points=[[0,0.5],[1,0.5]];portConstraint=eastwest;fontSize=16;" vertex="1" parent="0LG_3GaAj0TR1XZ5y8be-3">
          <mxGeometry width="94" height="32" as="geometry" />
        </mxCell>
        <mxCell id="0LG_3GaAj0TR1XZ5y8be-5" value="" style="shape=partialRectangle;html=1;whiteSpace=wrap;connectable=0;strokeColor=inherit;overflow=hidden;fillColor=none;top=0;left=0;bottom=0;right=0;pointerEvents=1;fontSize=16;" vertex="1" parent="0LG_3GaAj0TR1XZ5y8be-4">
          <mxGeometry width="32" height="32" as="geometry">
            <mxRectangle width="32" height="32" as="alternateBounds" />
          </mxGeometry>
        </mxCell>
        <mxCell id="0LG_3GaAj0TR1XZ5y8be-6" value="" style="shape=partialRectangle;html=1;whiteSpace=wrap;connectable=0;strokeColor=inherit;overflow=hidden;fillColor=none;top=0;left=0;bottom=0;right=0;pointerEvents=1;fontSize=16;" vertex="1" parent="0LG_3GaAj0TR1XZ5y8be-4">
          <mxGeometry x="32" width="30" height="32" as="geometry">
            <mxRectangle width="30" height="32" as="alternateBounds" />
          </mxGeometry>
        </mxCell>
        <mxCell id="0LG_3GaAj0TR1XZ5y8be-7" value="" style="shape=partialRectangle;html=1;whiteSpace=wrap;connectable=0;strokeColor=inherit;overflow=hidden;fillColor=none;top=0;left=0;bottom=0;right=0;pointerEvents=1;fontSize=16;" vertex="1" parent="0LG_3GaAj0TR1XZ5y8be-4">
          <mxGeometry x="62" width="32" height="32" as="geometry">
            <mxRectangle width="32" height="32" as="alternateBounds" />
          </mxGeometry>
        </mxCell>
        <mxCell id="0LG_3GaAj0TR1XZ5y8be-8" value="" style="shape=tableRow;horizontal=0;startSize=0;swimlaneHead=0;swimlaneBody=0;strokeColor=inherit;top=0;left=0;bottom=0;right=0;collapsible=0;dropTarget=0;fillColor=none;points=[[0,0.5],[1,0.5]];portConstraint=eastwest;fontSize=16;" vertex="1" parent="0LG_3GaAj0TR1XZ5y8be-3">
          <mxGeometry y="32" width="94" height="31" as="geometry" />
        </mxCell>
        <mxCell id="0LG_3GaAj0TR1XZ5y8be-9" value="" style="shape=partialRectangle;html=1;whiteSpace=wrap;connectable=0;strokeColor=inherit;overflow=hidden;fillColor=none;top=0;left=0;bottom=0;right=0;pointerEvents=1;fontSize=16;" vertex="1" parent="0LG_3GaAj0TR1XZ5y8be-8">
          <mxGeometry width="32" height="31" as="geometry">
            <mxRectangle width="32" height="31" as="alternateBounds" />
          </mxGeometry>
        </mxCell>
        <mxCell id="0LG_3GaAj0TR1XZ5y8be-10" value="" style="shape=partialRectangle;html=1;whiteSpace=wrap;connectable=0;strokeColor=inherit;overflow=hidden;fillColor=none;top=0;left=0;bottom=0;right=0;pointerEvents=1;fontSize=16;" vertex="1" parent="0LG_3GaAj0TR1XZ5y8be-8">
          <mxGeometry x="32" width="30" height="31" as="geometry">
            <mxRectangle width="30" height="31" as="alternateBounds" />
          </mxGeometry>
        </mxCell>
        <mxCell id="0LG_3GaAj0TR1XZ5y8be-11" value="" style="shape=partialRectangle;html=1;whiteSpace=wrap;connectable=0;strokeColor=inherit;overflow=hidden;fillColor=none;top=0;left=0;bottom=0;right=0;pointerEvents=1;fontSize=16;" vertex="1" parent="0LG_3GaAj0TR1XZ5y8be-8">
          <mxGeometry x="62" width="32" height="31" as="geometry">
            <mxRectangle width="32" height="31" as="alternateBounds" />
          </mxGeometry>
        </mxCell>
        <mxCell id="0LG_3GaAj0TR1XZ5y8be-12" value="" style="shape=tableRow;horizontal=0;startSize=0;swimlaneHead=0;swimlaneBody=0;strokeColor=inherit;top=0;left=0;bottom=0;right=0;collapsible=0;dropTarget=0;fillColor=none;points=[[0,0.5],[1,0.5]];portConstraint=eastwest;fontSize=16;" vertex="1" parent="0LG_3GaAj0TR1XZ5y8be-3">
          <mxGeometry y="63" width="94" height="32" as="geometry" />
        </mxCell>
        <mxCell id="0LG_3GaAj0TR1XZ5y8be-13" value="" style="shape=partialRectangle;html=1;whiteSpace=wrap;connectable=0;strokeColor=inherit;overflow=hidden;fillColor=none;top=0;left=0;bottom=0;right=0;pointerEvents=1;fontSize=16;" vertex="1" parent="0LG_3GaAj0TR1XZ5y8be-12">
          <mxGeometry width="32" height="32" as="geometry">
            <mxRectangle width="32" height="32" as="alternateBounds" />
          </mxGeometry>
        </mxCell>
        <mxCell id="0LG_3GaAj0TR1XZ5y8be-14" value="" style="shape=partialRectangle;html=1;whiteSpace=wrap;connectable=0;strokeColor=inherit;overflow=hidden;fillColor=none;top=0;left=0;bottom=0;right=0;pointerEvents=1;fontSize=16;" vertex="1" parent="0LG_3GaAj0TR1XZ5y8be-12">
          <mxGeometry x="32" width="30" height="32" as="geometry">
            <mxRectangle width="30" height="32" as="alternateBounds" />
          </mxGeometry>
        </mxCell>
        <mxCell id="0LG_3GaAj0TR1XZ5y8be-15" value="" style="shape=partialRectangle;html=1;whiteSpace=wrap;connectable=0;strokeColor=inherit;overflow=hidden;fillColor=none;top=0;left=0;bottom=0;right=0;pointerEvents=1;fontSize=16;" vertex="1" parent="0LG_3GaAj0TR1XZ5y8be-12">
          <mxGeometry x="62" width="32" height="32" as="geometry">
            <mxRectangle width="32" height="32" as="alternateBounds" />
          </mxGeometry>
        </mxCell>
        <mxCell id="0LG_3GaAj0TR1XZ5y8be-16" value="" style="whiteSpace=wrap;html=1;aspect=fixed;" vertex="1" parent="1">
          <mxGeometry x="580" y="540.5" width="33" height="33" as="geometry" />
        </mxCell>
        <mxCell id="0LG_3GaAj0TR1XZ5y8be-17" style="edgeStyle=orthogonalEdgeStyle;rounded=0;orthogonalLoop=1;jettySize=auto;html=1;exitX=0;exitY=0;exitDx=120;exitDy=50;exitPerimeter=0;" edge="1" parent="1" source="0LG_3GaAj0TR1XZ5y8be-18">
          <mxGeometry relative="1" as="geometry">
            <mxPoint x="830" y="561" as="targetPoint" />
          </mxGeometry>
        </mxCell>
        <mxCell id="0LG_3GaAj0TR1XZ5y8be-18" value="Encoder" style="shape=cube;whiteSpace=wrap;html=1;boundedLbl=1;backgroundOutline=1;darkOpacity=0.05;darkOpacity2=0.1;fillColor=#dae8fc;strokeColor=#6c8ebf;" vertex="1" parent="1">
          <mxGeometry x="660" y="511" width="120" height="80" as="geometry" />
        </mxCell>
        <mxCell id="0LG_3GaAj0TR1XZ5y8be-20" value="Sharp Image" style="whiteSpace=wrap;html=1;aspect=fixed;" vertex="1" parent="1">
          <mxGeometry x="1600" y="520" width="93" height="93" as="geometry" />
        </mxCell>
        <mxCell id="0LG_3GaAj0TR1XZ5y8be-26" style="edgeStyle=orthogonalEdgeStyle;rounded=0;orthogonalLoop=1;jettySize=auto;html=1;exitX=1;exitY=0.5;exitDx=0;exitDy=0;entryX=0.007;entryY=0.578;entryDx=0;entryDy=0;entryPerimeter=0;" edge="1" parent="1" source="0LG_3GaAj0TR1XZ5y8be-16" target="0LG_3GaAj0TR1XZ5y8be-18">
          <mxGeometry relative="1" as="geometry" />
        </mxCell>
        <mxCell id="0LG_3GaAj0TR1XZ5y8be-27" value="" style="shape=table;startSize=0;container=1;collapsible=0;childLayout=tableLayout;fontSize=16;" vertex="1" parent="1">
          <mxGeometry x="1468" y="519" width="94" height="95" as="geometry" />
        </mxCell>
        <mxCell id="0LG_3GaAj0TR1XZ5y8be-28" value="" style="shape=tableRow;horizontal=0;startSize=0;swimlaneHead=0;swimlaneBody=0;strokeColor=inherit;top=0;left=0;bottom=0;right=0;collapsible=0;dropTarget=0;fillColor=none;points=[[0,0.5],[1,0.5]];portConstraint=eastwest;fontSize=16;" vertex="1" parent="0LG_3GaAj0TR1XZ5y8be-27">
          <mxGeometry width="94" height="32" as="geometry" />
        </mxCell>
        <mxCell id="0LG_3GaAj0TR1XZ5y8be-29" value="" style="shape=partialRectangle;html=1;whiteSpace=wrap;connectable=0;strokeColor=inherit;overflow=hidden;fillColor=none;top=0;left=0;bottom=0;right=0;pointerEvents=1;fontSize=16;" vertex="1" parent="0LG_3GaAj0TR1XZ5y8be-28">
          <mxGeometry width="32" height="32" as="geometry">
            <mxRectangle width="32" height="32" as="alternateBounds" />
          </mxGeometry>
        </mxCell>
        <mxCell id="0LG_3GaAj0TR1XZ5y8be-30" value="" style="shape=partialRectangle;html=1;whiteSpace=wrap;connectable=0;strokeColor=inherit;overflow=hidden;fillColor=none;top=0;left=0;bottom=0;right=0;pointerEvents=1;fontSize=16;" vertex="1" parent="0LG_3GaAj0TR1XZ5y8be-28">
          <mxGeometry x="32" width="30" height="32" as="geometry">
            <mxRectangle width="30" height="32" as="alternateBounds" />
          </mxGeometry>
        </mxCell>
        <mxCell id="0LG_3GaAj0TR1XZ5y8be-31" value="" style="shape=partialRectangle;html=1;whiteSpace=wrap;connectable=0;strokeColor=inherit;overflow=hidden;fillColor=none;top=0;left=0;bottom=0;right=0;pointerEvents=1;fontSize=16;" vertex="1" parent="0LG_3GaAj0TR1XZ5y8be-28">
          <mxGeometry x="62" width="32" height="32" as="geometry">
            <mxRectangle width="32" height="32" as="alternateBounds" />
          </mxGeometry>
        </mxCell>
        <mxCell id="0LG_3GaAj0TR1XZ5y8be-32" value="" style="shape=tableRow;horizontal=0;startSize=0;swimlaneHead=0;swimlaneBody=0;strokeColor=inherit;top=0;left=0;bottom=0;right=0;collapsible=0;dropTarget=0;fillColor=none;points=[[0,0.5],[1,0.5]];portConstraint=eastwest;fontSize=16;" vertex="1" parent="0LG_3GaAj0TR1XZ5y8be-27">
          <mxGeometry y="32" width="94" height="31" as="geometry" />
        </mxCell>
        <mxCell id="0LG_3GaAj0TR1XZ5y8be-33" value="" style="shape=partialRectangle;html=1;whiteSpace=wrap;connectable=0;strokeColor=inherit;overflow=hidden;fillColor=none;top=0;left=0;bottom=0;right=0;pointerEvents=1;fontSize=16;" vertex="1" parent="0LG_3GaAj0TR1XZ5y8be-32">
          <mxGeometry width="32" height="31" as="geometry">
            <mxRectangle width="32" height="31" as="alternateBounds" />
          </mxGeometry>
        </mxCell>
        <mxCell id="0LG_3GaAj0TR1XZ5y8be-34" value="" style="shape=partialRectangle;html=1;whiteSpace=wrap;connectable=0;strokeColor=inherit;overflow=hidden;fillColor=none;top=0;left=0;bottom=0;right=0;pointerEvents=1;fontSize=16;" vertex="1" parent="0LG_3GaAj0TR1XZ5y8be-32">
          <mxGeometry x="32" width="30" height="31" as="geometry">
            <mxRectangle width="30" height="31" as="alternateBounds" />
          </mxGeometry>
        </mxCell>
        <mxCell id="0LG_3GaAj0TR1XZ5y8be-35" value="" style="shape=partialRectangle;html=1;whiteSpace=wrap;connectable=0;strokeColor=inherit;overflow=hidden;fillColor=none;top=0;left=0;bottom=0;right=0;pointerEvents=1;fontSize=16;" vertex="1" parent="0LG_3GaAj0TR1XZ5y8be-32">
          <mxGeometry x="62" width="32" height="31" as="geometry">
            <mxRectangle width="32" height="31" as="alternateBounds" />
          </mxGeometry>
        </mxCell>
        <mxCell id="0LG_3GaAj0TR1XZ5y8be-36" value="" style="shape=tableRow;horizontal=0;startSize=0;swimlaneHead=0;swimlaneBody=0;strokeColor=inherit;top=0;left=0;bottom=0;right=0;collapsible=0;dropTarget=0;fillColor=none;points=[[0,0.5],[1,0.5]];portConstraint=eastwest;fontSize=16;" vertex="1" parent="0LG_3GaAj0TR1XZ5y8be-27">
          <mxGeometry y="63" width="94" height="32" as="geometry" />
        </mxCell>
        <mxCell id="0LG_3GaAj0TR1XZ5y8be-37" value="" style="shape=partialRectangle;html=1;whiteSpace=wrap;connectable=0;strokeColor=inherit;overflow=hidden;fillColor=none;top=0;left=0;bottom=0;right=0;pointerEvents=1;fontSize=16;" vertex="1" parent="0LG_3GaAj0TR1XZ5y8be-36">
          <mxGeometry width="32" height="32" as="geometry">
            <mxRectangle width="32" height="32" as="alternateBounds" />
          </mxGeometry>
        </mxCell>
        <mxCell id="0LG_3GaAj0TR1XZ5y8be-38" value="" style="shape=partialRectangle;html=1;whiteSpace=wrap;connectable=0;strokeColor=inherit;overflow=hidden;fillColor=none;top=0;left=0;bottom=0;right=0;pointerEvents=1;fontSize=16;" vertex="1" parent="0LG_3GaAj0TR1XZ5y8be-36">
          <mxGeometry x="32" width="30" height="32" as="geometry">
            <mxRectangle width="30" height="32" as="alternateBounds" />
          </mxGeometry>
        </mxCell>
        <mxCell id="0LG_3GaAj0TR1XZ5y8be-39" value="" style="shape=partialRectangle;html=1;whiteSpace=wrap;connectable=0;strokeColor=inherit;overflow=hidden;fillColor=none;top=0;left=0;bottom=0;right=0;pointerEvents=1;fontSize=16;" vertex="1" parent="0LG_3GaAj0TR1XZ5y8be-36">
          <mxGeometry x="62" width="32" height="32" as="geometry">
            <mxRectangle width="32" height="32" as="alternateBounds" />
          </mxGeometry>
        </mxCell>
        <mxCell id="0LG_3GaAj0TR1XZ5y8be-40" value="Image Stitching" style="text;html=1;align=center;verticalAlign=middle;resizable=0;points=[];autosize=1;strokeColor=none;fillColor=none;" vertex="1" parent="1">
          <mxGeometry x="1460" y="465.5" width="110" height="30" as="geometry" />
        </mxCell>
        <mxCell id="0LG_3GaAj0TR1XZ5y8be-41" value="Image Patching" style="text;html=1;align=center;verticalAlign=middle;resizable=0;points=[];autosize=1;strokeColor=none;fillColor=none;" vertex="1" parent="1">
          <mxGeometry x="441" y="465.5" width="110" height="30" as="geometry" />
        </mxCell>
        <mxCell id="0LG_3GaAj0TR1XZ5y8be-60" style="edgeStyle=orthogonalEdgeStyle;rounded=0;orthogonalLoop=1;jettySize=auto;html=1;exitX=0;exitY=0;exitDx=119.99999999999999;exitDy=50;exitPerimeter=0;entryX=0;entryY=0.5;entryDx=0;entryDy=0;" edge="1" parent="1" source="0LG_3GaAj0TR1XZ5y8be-43" target="0LG_3GaAj0TR1XZ5y8be-53">
          <mxGeometry relative="1" as="geometry" />
        </mxCell>
        <mxCell id="0LG_3GaAj0TR1XZ5y8be-43" value="Decoder" style="shape=cube;whiteSpace=wrap;html=1;boundedLbl=1;backgroundOutline=1;darkOpacity=0.05;darkOpacity2=0.1;fillColor=#ffe6cc;strokeColor=#d79b00;" vertex="1" parent="1">
          <mxGeometry x="1230" y="516.5" width="120" height="80" as="geometry" />
        </mxCell>
        <mxCell id="0LG_3GaAj0TR1XZ5y8be-45" value="" style="shape=cube;whiteSpace=wrap;html=1;boundedLbl=1;backgroundOutline=1;darkOpacity=0.05;darkOpacity2=0.1;rotation=90;" vertex="1" parent="1">
          <mxGeometry x="900" y="433" width="30" height="170" as="geometry" />
        </mxCell>
        <mxCell id="0LG_3GaAj0TR1XZ5y8be-46" value="" style="shape=cube;whiteSpace=wrap;html=1;boundedLbl=1;backgroundOutline=1;darkOpacity=0.05;darkOpacity2=0.1;rotation=90;" vertex="1" parent="1">
          <mxGeometry x="900" y="473" width="30" height="170" as="geometry" />
        </mxCell>
        <mxCell id="0LG_3GaAj0TR1XZ5y8be-47" value="" style="shape=cube;whiteSpace=wrap;html=1;boundedLbl=1;backgroundOutline=1;darkOpacity=0.05;darkOpacity2=0.1;rotation=90;" vertex="1" parent="1">
          <mxGeometry x="900" y="540" width="30" height="170" as="geometry" />
        </mxCell>
        <mxCell id="0LG_3GaAj0TR1XZ5y8be-57" style="edgeStyle=orthogonalEdgeStyle;rounded=0;orthogonalLoop=1;jettySize=auto;html=1;exitX=0;exitY=0;exitDx=119.99999999999999;exitDy=50;exitPerimeter=0;entryX=-0.005;entryY=0.557;entryDx=0;entryDy=0;entryPerimeter=0;" edge="1" parent="1" source="0LG_3GaAj0TR1XZ5y8be-48" target="0LG_3GaAj0TR1XZ5y8be-43">
          <mxGeometry relative="1" as="geometry">
            <mxPoint x="1200" y="590" as="targetPoint" />
          </mxGeometry>
        </mxCell>
        <mxCell id="0LG_3GaAj0TR1XZ5y8be-48" value="Cross attention module" style="shape=cube;whiteSpace=wrap;html=1;boundedLbl=1;backgroundOutline=1;darkOpacity=0.05;darkOpacity2=0.1;fillColor=#d5e8d4;strokeColor=#82b366;" vertex="1" parent="1">
          <mxGeometry x="1060" y="511" width="120" height="80" as="geometry" />
        </mxCell>
        <mxCell id="0LG_3GaAj0TR1XZ5y8be-49" style="edgeStyle=orthogonalEdgeStyle;rounded=0;orthogonalLoop=1;jettySize=auto;html=1;exitX=0;exitY=0;exitDx=10;exitDy=0;exitPerimeter=0;entryX=0.002;entryY=0.526;entryDx=0;entryDy=0;entryPerimeter=0;" edge="1" parent="1" source="0LG_3GaAj0TR1XZ5y8be-46" target="0LG_3GaAj0TR1XZ5y8be-48">
          <mxGeometry relative="1" as="geometry">
            <mxPoint x="1091" y="551" as="targetPoint" />
          </mxGeometry>
        </mxCell>
        <mxCell id="0LG_3GaAj0TR1XZ5y8be-58" style="edgeStyle=orthogonalEdgeStyle;rounded=0;orthogonalLoop=1;jettySize=auto;html=1;exitX=1;exitY=0.5;exitDx=0;exitDy=0;entryX=0;entryY=0.5;entryDx=0;entryDy=0;" edge="1" parent="1" source="0LG_3GaAj0TR1XZ5y8be-53" target="0LG_3GaAj0TR1XZ5y8be-32">
          <mxGeometry relative="1" as="geometry" />
        </mxCell>
        <mxCell id="0LG_3GaAj0TR1XZ5y8be-53" value="" style="whiteSpace=wrap;html=1;aspect=fixed;" vertex="1" parent="1">
          <mxGeometry x="1390" y="550" width="33" height="33" as="geometry" />
        </mxCell>
        <mxCell id="0LG_3GaAj0TR1XZ5y8be-59" style="edgeStyle=orthogonalEdgeStyle;rounded=0;orthogonalLoop=1;jettySize=auto;html=1;exitX=1;exitY=0.5;exitDx=0;exitDy=0;entryX=0;entryY=0.5;entryDx=0;entryDy=0;" edge="1" parent="1" source="0LG_3GaAj0TR1XZ5y8be-32" target="0LG_3GaAj0TR1XZ5y8be-20">
          <mxGeometry relative="1" as="geometry" />
        </mxCell>
        <mxCell id="0LG_3GaAj0TR1XZ5y8be-62" style="edgeStyle=orthogonalEdgeStyle;rounded=0;orthogonalLoop=1;jettySize=auto;html=1;exitX=1;exitY=0.5;exitDx=0;exitDy=0;entryX=0;entryY=0.5;entryDx=0;entryDy=0;" edge="1" parent="1" source="0LG_3GaAj0TR1XZ5y8be-8" target="0LG_3GaAj0TR1XZ5y8be-16">
          <mxGeometry relative="1" as="geometry">
            <mxPoint x="569.9999999999998" y="557.25" as="targetPoint" />
          </mxGeometry>
        </mxCell>
        <mxCell id="0LG_3GaAj0TR1XZ5y8be-64" style="edgeStyle=orthogonalEdgeStyle;rounded=0;orthogonalLoop=1;jettySize=auto;html=1;exitX=0;exitY=0;exitDx=40;exitDy=74.5;exitPerimeter=0;" edge="1" parent="1" source="0LG_3GaAj0TR1XZ5y8be-63">
          <mxGeometry relative="1" as="geometry">
            <mxPoint x="1119.857142857143" y="510" as="targetPoint" />
          </mxGeometry>
        </mxCell>
        <mxCell id="0LG_3GaAj0TR1XZ5y8be-63" value="Hints" style="shape=cube;whiteSpace=wrap;html=1;boundedLbl=1;backgroundOutline=1;darkOpacity=0.05;darkOpacity2=0.1;fillColor=#f8cecc;strokeColor=#b85450;" vertex="1" parent="1">
          <mxGeometry x="1080" y="398.5" width="60" height="74.5" as="geometry" />
        </mxCell>
        <mxCell id="0LG_3GaAj0TR1XZ5y8be-65" value="&lt;span style=&quot;font-size: 28px;&quot;&gt;&lt;b&gt;.&lt;/b&gt;&lt;/span&gt;" style="text;html=1;align=center;verticalAlign=middle;resizable=0;points=[];autosize=1;strokeColor=none;fillColor=none;" vertex="1" parent="1">
          <mxGeometry x="900" y="546.5" width="30" height="50" as="geometry" />
        </mxCell>
        <mxCell id="0LG_3GaAj0TR1XZ5y8be-66" value="&lt;span style=&quot;font-size: 28px;&quot;&gt;&lt;b&gt;.&lt;/b&gt;&lt;/span&gt;" style="text;html=1;align=center;verticalAlign=middle;resizable=0;points=[];autosize=1;strokeColor=none;fillColor=none;" vertex="1" parent="1">
          <mxGeometry x="900" y="554.5" width="30" height="50" as="geometry" />
        </mxCell>
        <mxCell id="0LG_3GaAj0TR1XZ5y8be-67" value="&lt;span style=&quot;font-size: 28px;&quot;&gt;&lt;b&gt;.&lt;/b&gt;&lt;/span&gt;" style="text;html=1;align=center;verticalAlign=middle;resizable=0;points=[];autosize=1;strokeColor=none;fillColor=none;" vertex="1" parent="1">
          <mxGeometry x="900" y="564" width="30" height="50" as="geometry" />
        </mxCell>
        <mxCell id="0LG_3GaAj0TR1XZ5y8be-68" value="Image Patch" style="text;html=1;align=center;verticalAlign=middle;resizable=0;points=[];autosize=1;strokeColor=none;fillColor=none;" vertex="1" parent="1">
          <mxGeometry x="551" y="465.5" width="90" height="30" as="geometry" />
        </mxCell>
      </root>
    </mxGraphModel>
  </diagram>
</mxfile>
